<svg width="50" height="50" viewBox="0 0 50 50" fill="none" xmlns="http://www.w3.org/2000/svg">
<rect width="50" height="50" fill="white"/>
<circle cx="25" cy="25" r="24" stroke="#B0B0B0" stroke-width="2"/>
<path d="M21.5156 24.8555C21.5156 26.4492 21.2578 27.8359 20.7422 29.0156C20.2266 30.1875 19.5117 31.1289 18.5977 31.8398L21.4336 34.0664L19.1953 36.0469L15.5625 33.1289C15.1484 33.1992 14.7188 33.2344 14.2734 33.2344C12.8594 33.2344 11.5977 32.8945 10.4883 32.2148C9.37891 31.5352 8.51953 30.5664 7.91016 29.3086C7.30078 28.043 6.99219 26.5898 6.98438 24.9492V24.1055C6.98438 22.4258 7.28516 20.9492 7.88672 19.6758C8.49609 18.3945 9.35156 17.4141 10.4531 16.7344C11.5625 16.0469 12.8281 15.7031 14.25 15.7031C15.6719 15.7031 16.9336 16.0469 18.0352 16.7344C19.1445 17.4141 20 18.3945 20.6016 19.6758C21.2109 20.9492 21.5156 22.4219 21.5156 24.0938V24.8555ZM17.9531 24.082C17.9531 22.293 17.6328 20.9336 16.9922 20.0039C16.3516 19.0742 15.4375 18.6094 14.25 18.6094C13.0703 18.6094 12.1602 19.0703 11.5195 19.9922C10.8789 20.9062 10.5547 22.25 10.5469 24.0234V24.8555C10.5469 26.5977 10.8672 27.9492 11.5078 28.9102C12.1484 29.8711 13.0703 30.3516 14.2734 30.3516C15.4531 30.3516 16.3594 29.8906 16.9922 28.9688C17.625 28.0391 17.9453 26.6875 17.9531 24.9141V24.082ZM28.6875 15.9375L33.0703 28.3125L37.4297 15.9375H42.0469V33H38.5195V28.3359L38.8711 20.2852L34.2656 33H31.8516L27.2578 20.2969L27.6094 28.3359V33H24.0938V15.9375H28.6875Z" fill="#B0B0B0"/>
</svg>
